<svg version="1.0" xmlns="http://www.w3.org/2000/svg"
 width="519.000000pt" height="478.000000pt" viewBox="0 0 519.000000 478.000000"
 preserveAspectRatio="xMidYMid meet">
<g transform="translate(0.000000,478.000000) scale(0.100000,-0.100000)"
fill="#000000" stroke="none">
<path d="M0 2390 l0 -2390 2595 0 2595 0 0 2390 0 2390 -2595 0 -2595 0 0
-2390z m2340 2245 c11 -13 11 -25 1 -63 -7 -26 -14 -60 -14 -77 l-2 -30 105 3
c99 3 108 2 160 -25 62 -31 81 -64 64 -110 -19 -55 -105 -89 -155 -63 -37 20
-22 39 32 42 58 3 76 20 65 61 -8 35 -60 51 -150 45 -54 -4 -97 -16 -181 -51
-60 -25 -130 -51 -154 -58 -23 -7 -46 -19 -48 -27 -4 -8 11 -30 36 -52 35 -32
41 -44 41 -77 0 -48 -25 -84 -74 -107 -71 -33 -146 -11 -146 43 0 52 55 69 62
19 8 -55 98 -16 98 43 0 98 -147 87 -335 -25 -68 -41 -125 -87 -120 -97 3 -4
28 -15 55 -24 55 -18 72 -39 59 -72 -14 -38 -57 -51 -185 -58 -154 -9 -186
-18 -242 -68 -70 -64 -112 -111 -109 -122 2 -6 39 -10 83 -10 87 -1 132 -17
160 -60 36 -54 -10 -132 -83 -142 -47 -6 -93 25 -93 63 0 34 26 41 54 15 38
-36 96 -18 82 26 -10 31 -45 44 -114 44 -75 0 -139 -19 -195 -58 -38 -27 -167
-182 -167 -202 0 -16 30 -13 93 8 115 40 172 25 126 -32 -17 -23 -74 -57 -299
-180 -77 -42 -109 -74 -143 -142 -29 -60 -60 -151 -55 -165 2 -6 19 1 38 16
90 68 166 81 212 37 34 -32 37 -78 9 -140 -35 -75 -109 -97 -141 -40 -13 24
-13 30 0 54 20 36 34 38 48 8 15 -34 37 -32 52 5 15 37 6 77 -20 85 -72 23
-181 -68 -246 -205 -46 -94 -58 -137 -75 -254 -14 -103 -6 -111 63 -63 65 44
100 54 117 33 22 -27 -4 -76 -92 -171 -46 -50 -89 -105 -96 -123 -20 -49 -10
-282 14 -319 l18 -27 36 41 c85 97 161 82 161 -31 0 -53 -19 -86 -51 -86 -22
0 -49 37 -49 67 0 20 4 22 24 17 30 -7 47 2 39 21 -12 34 -71 -1 -102 -62 -19
-37 -13 -163 13 -264 30 -118 96 -274 116 -274 8 0 28 25 45 55 38 68 74 85
107 52 32 -31 27 -107 -12 -190 -17 -35 -30 -74 -30 -87 0 -35 70 -134 149
-209 39 -38 74 -66 76 -64 3 3 -4 31 -15 63 -36 106 -22 176 40 190 77 17 168
-112 120 -170 -16 -19 -33 -19 -71 1 -17 8 -33 14 -35 12 -7 -8 21 -84 48
-131 15 -26 28 -50 28 -53 0 -6 52 -86 65 -99 27 -29 165 -133 248 -187 110
-73 128 -88 121 -99 -8 -13 -108 41 -199 107 -71 51 -208 124 -233 124 -30 0
-272 86 -299 106 -62 47 -39 81 57 86 36 2 65 8 67 14 4 12 -223 273 -283 326
-42 37 -98 58 -133 49 -36 -10 -33 -33 7 -53 45 -22 47 -25 32 -43 -33 -40
-120 12 -122 73 -2 48 24 69 94 77 l60 7 -7 37 c-9 49 -110 335 -131 371 -10
15 -42 43 -71 62 -121 74 -143 91 -163 122 -24 40 -26 84 -3 93 20 8 94 -30
112 -58 12 -20 11 -21 -11 -16 -13 4 -30 2 -38 -3 -12 -7 -11 -12 5 -31 22
-24 62 -42 75 -34 5 3 5 17 0 31 -9 22 -6 31 16 57 25 30 26 35 20 112 -12
149 -32 321 -40 333 -4 7 -33 12 -72 12 -56 0 -68 4 -89 25 -32 31 -34 86 -5
115 29 29 74 25 127 -12 67 -45 73 -37 101 123 31 186 30 193 -62 327 -76 113
-86 138 -64 160 28 28 83 9 157 -52 32 -27 47 -34 59 -27 10 5 55 94 102 198
81 180 85 191 85 260 0 57 -4 77 -21 100 -41 54 -94 38 -94 -28 0 -44 -16 -51
-44 -20 -38 42 17 141 77 141 44 0 80 -27 116 -86 47 -79 64 -75 145 32 36 47
67 98 71 113 4 18 -7 69 -30 146 -20 65 -35 127 -33 139 2 12 14 25 31 30 38
14 61 -11 95 -105 19 -51 33 -75 46 -77 28 -6 300 268 316 318 16 49 8 134
-15 160 -20 22 -55 26 -73 8 -17 -17 -15 -23 13 -54 31 -33 28 -48 -11 -52
-34 -3 -68 27 -77 68 -9 37 24 85 66 99 66 22 146 -37 162 -119 16 -83 29 -91
89 -56 91 54 122 113 104 203 -5 26 -9 79 -10 117 -1 57 2 71 18 83 28 21 56
12 81 -26 19 -29 23 -47 23 -116 0 -55 4 -86 13 -93 18 -15 253 89 289 128 15
16 30 46 33 67 12 71 36 122 76 157 43 39 87 47 109 21z m636 -778 c3 -3 -3
-22 -14 -44 -23 -46 -49 -155 -57 -238 -3 -33 -8 -85 -11 -115 -15 -139 -21
-466 -23 -1208 -1 -648 -4 -825 -16 -917 -37 -282 -175 -521 -375 -650 -131
-84 -266 -120 -445 -119 -177 2 -307 44 -427 139 -147 116 -248 319 -248 499
0 80 88 244 202 377 61 72 171 162 229 188 45 21 74 27 65 13 -2 -4 -12 -73
-21 -152 -13 -107 -16 -182 -11 -286 18 -384 108 -567 281 -567 28 0 64 7 82
16 81 42 142 168 168 352 8 55 7 1859 -1 2120 -3 116 -12 243 -20 284 -18 99
-62 190 -123 254 -28 30 -49 56 -47 58 6 6 806 2 812 -4z m1922 4 c10 -1 9 -6
-2 -23 -81 -128 -105 -517 -106 -1713 0 -590 -3 -726 -15 -805 -38 -231 -122
-407 -261 -544 -100 -99 -217 -161 -374 -197 -77 -18 -290 -15 -365 5 -135 36
-281 133 -361 239 -74 100 -134 270 -134 383 0 86 118 288 244 417 l56 57 84
0 c47 0 87 -3 90 -8 2 -4 1 -59 -3 -122 -15 -218 13 -485 64 -607 66 -158 218
-217 325 -126 62 52 98 128 128 268 15 72 17 173 15 1055 -1 536 -4 1061 -8
1165 -9 287 -43 402 -151 509 -34 35 -40 45 -27 48 14 2 756 1 801 -1z"/>
</g>
</svg>
